<svg id="Grupo_12940" data-name="Grupo 12940" xmlns="http://www.w3.org/2000/svg" xmlns:xlink="http://www.w3.org/1999/xlink" width="184.044" height="180.617" viewBox="0 0 184.044 180.617">
  <defs>
    <clipPath id="clip-path">
      <rect id="Rectángulo_5157" data-name="Rectángulo 5157" width="184.044" height="180.617" fill="#003b5c" stroke="#fff" stroke-width="1"/>
    </clipPath>
  </defs>
  <g id="Grupo_12939" data-name="Grupo 12939" clip-path="url(#clip-path)">
    <path id="Trazado_11809" data-name="Trazado 11809" d="M44.359,124.517c7.368,0,14.115-.014,20.861.006,3.769.01,4.907,1.1,4.918,4.8.028,9.818-.035,19.636.036,29.453.022,2.928-1.147,4.71-4.117,4.7-13.411-.051-26.83.469-40.232-.26-5.634-.306-9.891-3.252-12.753-8-3.765-6.247-7.443-12.554-10.915-18.968-3.09-5.706-2.788-11.51.444-17.14C8.3,109.193,13.938,99.248,19.747,89.4c1.173-1.989,1-2.94-1.068-3.915-2.159-1.018-4.177-2.336-6.247-3.54-1.494-.869-2.693-2.022-2.416-3.9.287-1.949,1.636-2.821,3.526-3.326C26.974,71.13,40.381,67.446,53.8,63.81c2.711-.734,4.473.342,5.192,3.015q5.5,20.457,10.953,40.927a3.686,3.686,0,0,1-1.156,4.145c-1.49,1.2-3.024.954-4.559.058-2.54-1.482-5.11-2.914-7.615-4.452-1.232-.756-2.038-.872-2.862.605-2.96,5.307-6.029,10.554-9.394,16.409M19.834,152.494c.881-1.474,1.5-2.483,2.1-3.511q13.665-23.757,27.324-47.519c2.386-4.147,3.583-4.427,7.838-2.023.955.539,1.831,1.4,3.322,1.347-.211-1.078-.328-1.924-.545-2.743-1.8-6.826-3.638-13.643-5.436-20.47-1.559-5.917-1.542-5.919-7.62-4.3-1.048.28-2.1.527-3.152.81-6.626,1.79-13.25,3.586-20.42,5.527,1.051.73,1.552,1.117,2.09,1.446,5.146,3.144,5.307,3.743,2.325,8.929Q20.172,103,12.68,116.008c-7,12.111-7.013,12.107-.027,24.155,2.326,4.01,4.666,8.013,7.181,12.331m24.816,3.788c5.228,0,10.458-.066,15.685.035,1.921.036,2.678-.471,2.639-2.547-.123-6.533-.136-13.072.005-19.6.048-2.173-.832-2.484-2.684-2.456q-8.985.139-17.972-.005a3.276,3.276,0,0,0-3.3,1.985c-3.784,6.725-7.61,13.429-11.545,20.068-1.229,2.074-.7,2.571,1.486,2.544,5.228-.064,10.457-.021,15.685-.02" fill="#003b5c" stroke="#fff" stroke-width="1"/>
    <path id="Trazado_11810" data-name="Trazado 11810" d="M139.656,127.107c-3.514-6.11-6.756-11.733-9.984-17.362-2.393-4.173-2.062-5.433,2.082-7.841q12.141-7.05,24.3-14.072c3.5-2.017,4.931-1.672,6.915,1.763q9.308,16.116,18.538,32.278a17.034,17.034,0,0,1-.064,18c-3.2,5.569-6.449,11.11-9.57,16.722-3.7,6.657-9.41,9.718-16.9,9.727-11.013.012-22.027.07-33.039-.049-2.336-.026-3.056.7-2.879,2.955.179,2.276.06,4.577.028,6.866A4.194,4.194,0,0,1,116.6,180.3c-1.89.85-3.146-.178-4.317-1.35Q97.482,164.146,82.72,149.3c-1.991-1.994-2.081-4-.106-5.987q14.857-14.974,29.751-29.912a3.807,3.807,0,0,1,4.147-1.214,3.847,3.847,0,0,1,2.55,3.83c.082,2.833.133,5.674,0,8.5-.089,1.928.418,2.682,2.519,2.631,5.836-.141,11.679-.049,18.074-.049M111.893,125.1c-.576.081-.855.034-.971.149-6.559,6.536-13.077,13.113-19.673,19.611-1.376,1.356-.726,2.122.316,3.158,6.18,6.147,12.314,12.341,18.481,18.5.414.414.76,1.141,1.845.674,0-.752-.006-1.594,0-2.436.045-5.363.359-5.671,5.853-5.672,12.313,0,24.627-.05,36.939.022,5.071.029,8.725-1.988,11.162-6.494,2.69-4.972,5.613-9.818,8.4-14.739.6-1.062,1.625-1.994,1.425-3.541h-23q-18.144,0-36.286-.009c-3.574-.007-4.421-.881-4.488-4.429-.03-1.584-.005-3.169-.005-4.8m64.307,2.01c-6.138-10.671-11.927-20.724-17.7-30.787-.776-1.353-1.571-.624-2.415-.136-5.928,3.426-11.842,6.877-17.8,10.243-1.4.791-1.381,1.522-.627,2.8,3.153,5.33,6.222,10.71,9.288,16.091a2.852,2.852,0,0,0,2.741,1.825c8.6-.069,17.19-.034,26.514-.034" fill="#003b5c" stroke="#fff" stroke-width="1"/>
    <path id="Trazado_11811" data-name="Trazado 11811" d="M94.38,43c-3.568,6.183-6.862,11.9-10.168,17.618-2.35,4.06-3.443,4.361-7.547,1.994Q64.5,55.6,52.359,48.533c-3.684-2.144-4.046-3.422-1.957-7.071,6.06-10.58,12.2-21.111,18.209-31.722C71.62,4.421,76.03.9,82.045.524c8.789-.553,17.643-.947,26.422.315a15.28,15.28,0,0,1,9.582,5.786c1.5,1.8,1.9,3.793.047,5.525-1.914,1.787-3.87,1.184-5.393-.658-2.6-3.143-5.993-4.088-9.891-4.052-6.612.061-13.225.017-20.46.017,2.7,4.764,5.068,9,7.485,13.2q10.743,18.691,21.515,37.368c3.018,5.247,2.848,5.829-2.366,8.891-.832.489-1.634,1.029-2.9,1.834,8.606,2.318,16.75,4.526,24.9,6.7,4.724,1.259,4.747,1.239,6.025-3.512q3-11.163,5.968-22.337c.19-.713.667-1.408.162-2.174-7.741,3.254-7.743,3.256-12.114-4.319-.761-1.319-1.575-2.617-2.223-3.991a3.262,3.262,0,0,1,1.37-4.523c1.724-1.069,3.331-.65,4.65.863a8.625,8.625,0,0,1,.565.8c1.106,1.6,1.623,4.577,3.156,4.662,1.841.1,3.8-1.765,5.693-2.8,1.244-.676,2.5-1.334,3.7-2.086a2.927,2.927,0,0,1,3.63.328,3.406,3.406,0,0,1,1.49,3.694c-3.683,13.858-7.343,27.722-11.1,41.56-.8,2.933-2.625,3.594-6.282,2.614q-15.588-4.176-31.167-8.382c-2.409-.648-4.835-1.235-7.232-1.92C95.392,73.4,93.37,72.915,93,70.5s1.335-3.472,3.094-4.476c2.362-1.35,4.7-2.75,7.058-4.1.883-.5,1.692-.851.913-2.17C100.883,54.357,97.783,48.9,94.38,43m-4.3-7.183a11.549,11.549,0,0,0-.55-1.331C85.413,27.323,81.269,20.172,77.16,13c-1.227-2.141-1.78-.526-2.324.417C69.451,22.739,64.13,32.1,58.7,41.4c-.861,1.475-.66,2.144.805,2.968Q68.322,49.319,77,54.5c1.569.94,2.2.46,2.981-.939,3.023-5.412,6.15-10.765,9.234-16.143.317-.553.606-1.121.865-1.6" fill="#003b5c" stroke="#fff" stroke-width="1"/>
    <path id="Trazado_11812" data-name="Trazado 11812" d="M123.638,27.06a3.229,3.229,0,0,1-3.18-3.595A3.211,3.211,0,0,1,123.923,20a3.285,3.285,0,0,1,3.514,3.758c-.13,2.042-1.439,3.308-3.8,3.3" fill="#2699fb" stroke="#fff" stroke-width="1"/>
  </g>
</svg>
