<svg id="Grupo_12944" data-name="Grupo 12944" xmlns="http://www.w3.org/2000/svg" xmlns:xlink="http://www.w3.org/1999/xlink" width="264.341" height="167.559" viewBox="0 0 264.341 167.559">
  <defs>
    <clipPath id="clip-path">
      <rect id="Rectángulo_5159" data-name="Rectángulo 5159" width="264.341" height="167.559" fill="#003b5c" stroke="#fff" stroke-width="1"/>
    </clipPath>
  </defs>
  <g id="Grupo_12943" data-name="Grupo 12943" clip-path="url(#clip-path)">
    <path id="Trazado_11815" data-name="Trazado 11815" d="M105.614,0q38.571,0,77.143,0c8.1,0,10.981,2.872,11.011,10.949.025,6.641.025,6.64,6.815,6.642,7.84,0,15.681-.094,23.519.03,12.206.193,21.66,10.794,17.588,22.061s3.2,19.769,3.779,29.683c.111,1.893,1.685,1.839,3.049,2.253,9.388,2.853,15.612,10.749,15.734,20.5.181,14.423.02,28.85.084,43.275.018,3.9-1.6,5.915-5.618,5.7-.312-.016-.627,0-.94,0-3.291.03-6.985-.868-9.766.338-3.127,1.356-1.658,5.734-2.736,8.686-4.183,11.451-15.133,18.356-28.2,17.342-10.923-.849-20.773-10.38-22.4-22.05-.447-3.206-1.35-4.429-4.887-4.408q-42.333.251-84.668.03c-3.094-.012-4.217.736-4.626,4.016-1.68,13.5-12.73,22.584-26.8,22.453a25.611,25.611,0,0,1-24.893-22.984c-.315-3.048-1.482-3.531-4.087-3.466-5.8.144-11.6.087-17.4.032-6.389-.06-9.552-3.2-9.653-9.45-.134-8.267-.134-8.267-8.475-8.269-1.569,0-3.136-.01-4.7-.009-2.587,0-4.286-1.268-4.475-3.823-.215-2.9,1.686-4.24,4.339-4.5,1.71-.167,3.446-.069,5.17-.07q15.994-.006,31.986,0c3.189,0,6.4.362,6.239,4.5-.145,3.842-3.244,3.971-6.238,3.925-4.232-.064-8.469.08-12.7-.038-4.134-.114-2.795,2.927-2.88,4.958-.084,1.983-.915,4.578,2.859,4.467,6.11-.179,12.23-.1,18.343-.014,2,.03,2.965-.7,3.877-2.54,4.8-9.7,12.788-15.063,23.561-15.119S93.41,120.33,98.245,130c1.127,2.256,2.424,2.767,4.687,2.763q39.276-.089,78.553.032c3.163.015,3.935-1,3.872-3.994-.181-8.464-.013-16.933-.087-25.4-.027-3.185.772-6.052,4.345-5.962,3.515.089,4.222,2.979,4.186,6.15-.1,8.623-.051,17.247-.006,25.87.006,1-.6,2.439.656,2.916,1.48.564,1.634-1.008,2.087-1.911,4.937-9.845,12.928-15.385,23.9-15.364s18.926,5.555,23.9,15.409c2.249,4.46,6.437,1.892,9.652,2.02,3.273.131,1.388-3.064,1.775-4.754a16.3,16.3,0,0,0,.05-3.751c-.034-2.818.758-6.042-.351-8.346-1.2-2.489-4.823-.73-7.31-1.56-5.225-1.742-8.54-5-9.523-10.483-.027-.154-.047-.31-.07-.466-1.884-13.4-.9-14.535,12.383-14.75,1.256-.021,3.145.915,3.693-.832.422-1.346-.919-2.574-1.828-3.627a13.564,13.564,0,0,0-10.733-4.908c-14.895,0-29.79.031-44.686-.035-2.318-.01-3.955.114-3.669,3.162.278,2.96-.715,5.49-4.217,5.491-3.963,0-4.2-2.99-4.2-5.979,0-22.735-.142-45.472.12-68.2.052-4.526-1.439-5.295-5.518-5.284q-74.321.189-148.641-.012c-4.255-.012-5.529,1.043-5.486,5.4.222,22.106.11,44.215.087,66.323a26.551,26.551,0,0,1-.394,5.133c-.4,1.993-1.936,2.7-3.877,2.662A3.627,3.627,0,0,1,17.832,84.8a13.423,13.423,0,0,1-.158-3.274q-.01-35.75,0-71.5C17.681,2.779,20.55.008,28,.006q38.807-.013,77.613,0M237.067,70.554c-2.064-8.44-4.013-16.463-6-24.478a2.953,2.953,0,0,0-3.307-2.537q-15.521.143-31.043.012c-2.226-.015-3.018.771-2.986,3.012.1,7.054.075,14.111.012,21.166-.017,1.869.38,2.871,2.564,2.859,13.46-.07,26.92-.035,40.757-.035M74.544,159.194A17.741,17.741,0,0,0,92.6,141.509,18.025,18.025,0,0,0,74.847,123.39a18.229,18.229,0,0,0-18.162,17.815,17.988,17.988,0,0,0,17.859,17.988m145.925,0a17.631,17.631,0,0,0,17.795-17.9,17.9,17.9,0,0,0-17.931-17.9,18.2,18.2,0,0,0-17.916,18.036,17.993,17.993,0,0,0,18.052,17.768M213.7,35.206c5.783,0,11.566-.059,17.347.026,2.738.04,3.226-1,2.253-3.41-1.691-4.195-4.971-5.915-9.195-5.961-9.063-.1-18.13.092-27.19-.094-3.973-.082-3.159,2.509-3.113,4.7.045,2.115-1.042,4.921,3.022,4.785,5.619-.188,11.25-.047,16.875-.045m37.414,61.816c-1.861.278-4.815-1.309-4.635,2.881s2.054,6.136,6.162,6.415c3.945.267,2.987-2.326,3.2-4.5.351-3.52-.247-5.947-4.732-4.8" fill="#003b5c" stroke="#fff" stroke-width="1"/>
    <path id="Trazado_11816" data-name="Trazado 11816" d="M149.522,46.4c.256,1.746-.9,2.857-2.007,3.97Q128.785,69.184,110.058,88c-2.909,2.938-5.46,2.939-8.372-.067-6.538-6.748-13.2-13.378-19.871-20-2.024-2.007-3.125-4.195-.993-6.531,2.365-2.59,4.723-1.489,6.86.677,4.951,5.016,10.057,9.886,14.866,15.036,2.392,2.561,3.867,2.99,6.6.147,10.643-11.059,21.576-21.84,32.435-32.689,1.523-1.522,3.038-3.324,5.661-1.963a3.674,3.674,0,0,1,2.274,3.783" transform="translate(-4.707 -2.49)" fill="#2699fb" stroke="#fff" stroke-width="1"/>
    <path id="Trazado_11817" data-name="Trazado 11817" d="M147.2,130.584c-9.547,0-19.093-.04-28.639.023-3.142.02-5.874-.544-5.825-4.347.046-3.591,2.839-4.067,5.678-4.068q29.109-.021,58.218,0c3.015,0,5.93.47,5.809,4.4-.109,3.569-2.741,4.025-5.662,4.012-9.86-.044-19.719-.017-29.578-.017" transform="translate(-6.661 -7.219)" fill="#003b5c" stroke="#fff" stroke-width="1"/>
    <path id="Trazado_11818" data-name="Trazado 11818" d="M39.871,111.608c-8.309,0-16.618-.059-24.927.031-3.037.033-5.652-.731-5.6-4.106.048-3.26,2.68-4.282,5.662-4.282q24.928,0,49.854.01c2.932,0,5.553.885,5.555,4.317,0,3.55-2.652,4.075-5.616,4.053-8.308-.064-16.617-.023-24.927-.023" transform="translate(-0.552 -6.101)" fill="#003b5c" stroke="#fff" stroke-width="1"/>
    <path id="Trazado_11819" data-name="Trazado 11819" d="M70.185,149.594a8.932,8.932,0,0,1,8.846-8.518A8.629,8.629,0,0,1,87.319,150a8.415,8.415,0,0,1-8.468,8.214,8.741,8.741,0,0,1-8.666-8.618" transform="translate(-4.147 -8.336)" fill="#003b5c" stroke="#fff" stroke-width="1"/>
    <path id="Trazado_11820" data-name="Trazado 11820" d="M233.812,141.071a8.663,8.663,0,0,1,8.4,8.832,8.373,8.373,0,0,1-8.842,8.293,8.626,8.626,0,0,1-8.242-8.514,8.79,8.79,0,0,1,8.681-8.611" transform="translate(-13.303 -8.336)" fill="#003b5c" stroke="#fff" stroke-width="1"/>
  </g>
</svg>
