<svg id="Grupo_12942" data-name="Grupo 12942" xmlns="http://www.w3.org/2000/svg" xmlns:xlink="http://www.w3.org/1999/xlink" width="133.575" height="180.958" viewBox="0 0 133.575 180.958">
  <defs>
    <clipPath id="clip-path">
      <rect id="Rectángulo_5158" data-name="Rectángulo 5158" width="133.575" height="180.958" fill="#003b5c"/>
    </clipPath>
  </defs>
  <g id="Grupo_12941" data-name="Grupo 12941" clip-path="url(#clip-path)">
    <path id="Trazado_11813" data-name="Trazado 11813" d="M133.574,66.3c-.133,14.942-5.23,28.322-13.278,40.64Q97.779,141.4,74.955,175.663c-4.7,7.087-11.559,7.052-16.275-.064q-22.741-34.316-45.364-68.708C6.386,96.359,1.565,84.881.337,72.32c-1.545-15.8,2.2-30.613,11.576-43.469C28.883,5.581,52.01-3.684,80.286,1.314,107.33,6.1,129.214,29.817,132.926,57c.424,3.1.522,6.181.648,9.3m-7.795-.157a70.069,70.069,0,0,0-.571-7.379C119.84,23.506,86.74,1.2,52.265,9.658,26.99,15.861,8.277,39.361,7.945,65.4c-.182,14.272,5.181,26.776,12.8,38.424,14.614,22.335,29.384,44.567,44.094,66.839,1.97,2.983,2,2.986,3.93.068q22.152-33.542,44.274-67.1c7.464-11.375,12.492-23.632,12.734-37.482" transform="translate(0 0)" fill="#003b5c"/>
    <path id="Trazado_11814" data-name="Trazado 11814" d="M109.83,74.443A35.282,35.282,0,1,1,74.512,39.162,35.4,35.4,0,0,1,109.83,74.443m-7.873.271a27.411,27.411,0,1,0-27.482,27.3,27.419,27.419,0,0,0,27.482-27.3" transform="translate(-7.715 -7.694)" fill="#2699fb"/>
  </g>
</svg>
