<svg id="Grupo_12950" data-name="Grupo 12950" xmlns="http://www.w3.org/2000/svg" xmlns:xlink="http://www.w3.org/1999/xlink" width="113.365" height="114.328" viewBox="0 0 113.365 114.328">
  <defs>
    <clipPath id="clip-path">
      <rect id="Rectángulo_5397" data-name="Rectángulo 5397" width="113.365" height="114.328" fill="#fff"/>
    </clipPath>
  </defs>
  <g id="Grupo_12949" data-name="Grupo 12949" clip-path="url(#clip-path)">
    <path id="Trazado_11822" data-name="Trazado 11822" d="M13.736,75.662c0-4.472-.067-8.946.037-13.416a2.9,2.9,0,0,0-1.807-3.139c-3.387-1.677-6.673-3.561-9.988-5.383C-.45,52.389-.577,51.534,1.34,49.593c3.427-3.472,6.794-7.008,10.332-10.363,1.3-1.235,1.07-1.846-.071-2.956-3.545-3.448-6.988-7-10.435-10.547C-.527,23.985-.4,23.146,1.7,21.994Q11.838,16.441,22,10.936a3.237,3.237,0,0,1,2.1-.6,1.572,1.572,0,0,1,1.249,1.191,1.385,1.385,0,0,1-.563,1.61,17.346,17.346,0,0,1-2.257,1.354C17.011,17.5,11.5,20.525,5.951,23.472c-1.218.646-1.42,1.039-.337,2.084,3.07,2.963,6.058,6.013,9.013,9.092A1.664,1.664,0,0,0,17.039,35q17.707-9.692,35.479-19.265c1-.54,1.35-.868.364-1.826q-4.738-4.6-9.332-9.351a1.538,1.538,0,0,0-2.237-.315c-3.347,1.9-6.76,3.694-10.136,5.547-1.094.6-2.242,1.046-2.969-.333s.352-2.09,1.41-2.667c3.8-2.07,7.636-4.077,11.391-6.226a2.749,2.749,0,0,1,3.906.557C48.385,4.743,52,8.219,55.493,11.819c.887.915,1.378,1.054,2.344.049,3.473-3.615,7.1-7.086,10.575-10.7C69.636-.1,70.663-.359,72.294.536,85.33,7.7,98.416,14.769,111.481,21.878c2.331,1.269,2.462,2.08.6,3.99-3.454,3.54-6.89,7.1-10.447,10.535-1.182,1.141-1.035,1.741.064,2.805,3.5,3.393,6.895,6.9,10.322,10.373,1.925,1.949,1.805,2.8-.618,4.134C107.966,55.6,104.54,57.5,101.057,59.3A2.406,2.406,0,0,0,99.6,61.826c.056,9.147,0,18.3.061,27.443a3.137,3.137,0,0,1-1.868,3.2q-19.745,10.612-39.419,21.356a3.1,3.1,0,0,1-3.375.007Q35.238,103.042,15.411,92.368a2.835,2.835,0,0,1-1.7-2.884c.072-4.607.027-9.215.027-13.823M58.781,64.769c-.528.4-.379.835-.379,1.21-.009,14.025.013,28.05-.034,42.074-.006,1.831.581,1.634,1.829.953Q77.466,99.581,94.788,90.26a2.57,2.57,0,0,0,1.53-2.7c-.056-7.859-.028-15.718-.028-23.577v-2c-2.1,1.116-3.88,2.054-5.652,3.01a1.593,1.593,0,0,1-2.429-.556c-.6-1.047-.1-1.81.811-2.366.578-.352,1.185-.656,1.779-.98l18.472-10.071c-3.653-3.484-7.115-6.715-10.479-10.045a1.827,1.827,0,0,0-2.6-.363C87.9,45.175,79.575,49.675,71.26,54.192c-3.858,2.1-7.719,4.184-11.993,6.5,3.775,3.679,7.371,7.152,10.925,10.669.791.782,1.359.183,1.965-.144,3.332-1.794,6.646-3.62,9.972-5.425,1.067-.579,2.263-1.054,3.016.289.769,1.372-.3,2.082-1.371,2.664q-5.255,2.851-10.507,5.71c-3.069,1.667-3.062,1.659-5.479-.75-3-2.99-6.012-5.968-9.006-8.938m35.482-26.91a10.108,10.108,0,0,0-.92-.654C81.476,30.757,69.595,24.333,57.751,17.842a2.333,2.333,0,0,0-2.584.274Q37.9,27.492,20.628,36.875c-.479.261-1.142.355-1.337,1.082Q34.366,46.147,49.4,54.307c2.372,1.286,4.714,3.388,7.17,3.546,2.557.164,4.9-2.225,7.323-3.527C74,48.891,84.066,43.4,94.264,37.859m-77.1,24.436a6.92,6.92,0,0,0-.083.759c0,8.329.033,16.657-.044,24.985-.012,1.323.694,1.729,1.616,2.227Q35.772,99.519,52.874,108.8c2.085,1.13,2.1,1.124,2.1-1.2q.005-20.415-.01-40.829c0-.635.228-1.331-.344-2.056-2.993,2.976-5.955,5.91-8.9,8.856-2.548,2.546-2.543,2.554-5.621.881q-10.508-5.713-21.02-11.417c-.568-.307-1.08-.823-1.907-.739M70.875,3.687c-.3.254-.632.489-.913.77-3.16,3.158-6.282,6.355-9.488,9.465-1.014.985-.581,1.3.389,1.82Q78.609,25.325,96.305,35a1.78,1.78,0,0,0,2.558-.481c2.923-3.011,5.855-6.014,8.866-8.936,1.011-.981,1.019-1.392-.276-2.09Q89.8,13.973,72.2,4.351c-.413-.225-.841-.423-1.32-.663M53.915,60.871a5.76,5.76,0,0,0-.729-.672Q35.018,50.331,16.854,40.455a1.466,1.466,0,0,0-2.085.356Q10.1,45.62,5.334,50.334c-.768.757-.633,1.068.24,1.54Q23.581,61.611,41.557,71.4c.587.32,1.034.526,1.606-.037,3.567-3.506,7.156-6.989,10.752-10.495" transform="translate(0 0)" fill="#fff"/>
    <path id="Trazado_11823" data-name="Trazado 11823" d="M74.955,180.309a2.951,2.951,0,0,1,1.345.586,2.5,2.5,0,0,1,.686,1.025c.233.439.331.929.552,1.369.125.248.1.526.221.771a1.8,1.8,0,0,1,.219.62c.016.142.084.327.309.3a.413.413,0,0,0,.342-.363c.045-.18.094-.363.124-.548a.469.469,0,0,1,.337-.439.518.518,0,0,1,.59.267,1.23,1.23,0,0,1,.057,1.182,2.724,2.724,0,0,0-.182.779,2.475,2.475,0,0,1-.31.9,2.421,2.421,0,0,0-.15.676.958.958,0,0,1-.3.522.362.362,0,0,1-.514.018c-.191-.178-.423-.29-.622-.452-.405-.328-.84-.629-1.232-.964a3.91,3.91,0,0,1-.971-.857.831.831,0,0,1-.109-.757.347.347,0,0,1,.48-.239,2.7,2.7,0,0,1,.905.687c.136.15.259.215.428.054.053-.051.078-.1.043-.165a10.27,10.27,0,0,1-.454-1.188q-.375-.937-.7-1.892a.81.81,0,0,0-.462-.457.6.6,0,0,0-.728.335c-.162.3-.252.637-.432.91-.255.389-.446.808-.683,1.2-.306.509-.572,1.039-.834,1.574a12.842,12.842,0,0,1-.73,1.261,7.518,7.518,0,0,0-.542,1,.5.5,0,0,1-.467.34.736.736,0,0,1-.538-.458,1.161,1.161,0,0,1,.166-.925,16.551,16.551,0,0,0,1.052-1.995,3.091,3.091,0,0,1,.409-.678c.228-.361.363-.77.621-1.115a3.056,3.056,0,0,0,.329-.67,13.8,13.8,0,0,1,1-1.777.738.738,0,0,1,.748-.444" transform="translate(-41.888 -106.993)" fill="#fff"/>
    <path id="Trazado_11824" data-name="Trazado 11824" d="M74.955,180.309a2.951,2.951,0,0,1,1.345.586,2.5,2.5,0,0,1,.686,1.025c.233.439.331.929.552,1.369.125.248.1.526.221.771a1.8,1.8,0,0,1,.219.62c.016.142.084.327.309.3a.413.413,0,0,0,.342-.363c.045-.18.094-.363.124-.548a.469.469,0,0,1,.337-.439.518.518,0,0,1,.59.267,1.23,1.23,0,0,1,.057,1.182,2.724,2.724,0,0,0-.182.779,2.475,2.475,0,0,1-.31.9,2.421,2.421,0,0,0-.15.676.958.958,0,0,1-.3.522.362.362,0,0,1-.514.018c-.191-.178-.423-.29-.622-.452-.405-.328-.84-.629-1.232-.964a3.91,3.91,0,0,1-.971-.857.831.831,0,0,1-.109-.757.347.347,0,0,1,.48-.239,2.7,2.7,0,0,1,.905.687c.136.15.259.215.428.054.053-.051.078-.1.043-.165a10.27,10.27,0,0,1-.454-1.188q-.375-.937-.7-1.892a.81.81,0,0,0-.462-.457.6.6,0,0,0-.728.335c-.162.3-.252.637-.432.91-.255.389-.446.808-.683,1.2-.306.509-.572,1.039-.834,1.574a12.842,12.842,0,0,1-.73,1.261,7.518,7.518,0,0,0-.542,1,.5.5,0,0,1-.467.34.736.736,0,0,1-.538-.458,1.161,1.161,0,0,1,.166-.925,16.551,16.551,0,0,0,1.052-1.995,3.091,3.091,0,0,1,.409-.678c.228-.361.363-.77.621-1.115a3.056,3.056,0,0,0,.329-.67,13.8,13.8,0,0,1,1-1.777A.738.738,0,0,1,74.955,180.309Z" transform="translate(-41.888 -106.993)" fill="#fff" stroke="#fff" stroke-miterlimit="10" stroke-width="1"/>
    <path id="Trazado_11825" data-name="Trazado 11825" d="M208.4,199.065c0,.182,0,.308,0,.434-.011.26.038.518-.192.747-.124.123-.1.382-.2.542-.194.3-.43.581-.649.869a3.22,3.22,0,0,1-1.1.761c-.386.216-.77.434-1.169.626a2.658,2.658,0,0,1-.361.165.319.319,0,0,0-.161.542,1.542,1.542,0,0,0,.426.351.815.815,0,0,1,.355,1.095c-.148.27-.274.515-.643.507a.711.711,0,0,1-.466-.237c-.493-.446-1.031-.841-1.515-1.295a.759.759,0,0,1-.077-1.066,6.27,6.27,0,0,0,.618-1.248.78.78,0,0,1,.236-.375.36.36,0,0,0,.148-.275.547.547,0,0,1,.09-.25,2.285,2.285,0,0,0,.311-.669.5.5,0,0,1,.236-.342.4.4,0,0,0,.16-.3.649.649,0,0,1,.42-.515c.211-.1.362-.05.4.176a1.475,1.475,0,0,1-.309,1.276,3.483,3.483,0,0,0-.451.751.358.358,0,0,0,.032.431c.135.122.275.026.414-.054a7.152,7.152,0,0,0,.733-.376,12.846,12.846,0,0,0,1.388-.884,1.722,1.722,0,0,0,.288-1.286,4.747,4.747,0,0,0-.614-1.133c-.261-.507-.564-1-.857-1.49a11.644,11.644,0,0,0-1-1.682,2.7,2.7,0,0,1-.366-.646,10.676,10.676,0,0,1-.586-1.132,1.222,1.222,0,0,1,.258-1.243.328.328,0,0,1,.486.05c.313.459.58.945.849,1.432a9.964,9.964,0,0,0,.839,1.414,3.415,3.415,0,0,1,.34.538,14.9,14.9,0,0,1,.91,1.708c.041.11.147.176.217.266.137.176.173.439.3.584a1.731,1.731,0,0,1,.272,1.232" transform="translate(-120.14 -113.791)" fill="#fff"/>
    <path id="Trazado_11826" data-name="Trazado 11826" d="M208.4,199.065c0,.182,0,.308,0,.434-.011.26.038.518-.192.747-.124.123-.1.382-.2.542-.194.3-.43.581-.649.869a3.22,3.22,0,0,1-1.1.761c-.386.216-.77.434-1.169.626a2.658,2.658,0,0,1-.361.165.319.319,0,0,0-.161.542,1.542,1.542,0,0,0,.426.351.815.815,0,0,1,.355,1.095c-.148.27-.274.515-.643.507a.711.711,0,0,1-.466-.237c-.493-.446-1.031-.841-1.515-1.295a.759.759,0,0,1-.077-1.066,6.27,6.27,0,0,0,.618-1.248.78.78,0,0,1,.236-.375.36.36,0,0,0,.148-.275.547.547,0,0,1,.09-.25,2.285,2.285,0,0,0,.311-.669.5.5,0,0,1,.236-.342.4.4,0,0,0,.16-.3.649.649,0,0,1,.42-.515c.211-.1.362-.05.4.176a1.475,1.475,0,0,1-.309,1.276,3.483,3.483,0,0,0-.451.751.358.358,0,0,0,.032.431c.135.122.275.026.414-.054a7.152,7.152,0,0,0,.733-.376,12.846,12.846,0,0,0,1.388-.884,1.722,1.722,0,0,0,.288-1.286,4.747,4.747,0,0,0-.614-1.133c-.261-.507-.564-1-.857-1.49a11.644,11.644,0,0,0-1-1.682,2.7,2.7,0,0,1-.366-.646,10.676,10.676,0,0,1-.586-1.132,1.222,1.222,0,0,1,.258-1.243.328.328,0,0,1,.486.05c.313.459.58.945.849,1.432a9.964,9.964,0,0,0,.839,1.414,3.415,3.415,0,0,1,.34.538,14.9,14.9,0,0,1,.91,1.708c.041.11.147.176.217.266.137.176.173.439.3.584A1.731,1.731,0,0,1,208.4,199.065Z" transform="translate(-120.14 -113.791)" fill="#fff" stroke="#fff" stroke-miterlimit="10" stroke-width="1"/>
    <path id="Trazado_11827" data-name="Trazado 11827" d="M93.67,215.381a4.181,4.181,0,0,0,0,.539,1.226,1.226,0,0,1-.322.823.532.532,0,0,1-.414.223,2.053,2.053,0,0,1-1.4-.324,7.537,7.537,0,0,0-1.2-.577c-.177-.077-.25-.27-.441-.335-.134-.045-.266-.113-.377-.019a.329.329,0,0,0-.034.4,2.812,2.812,0,0,0,.444.722,1.5,1.5,0,0,1,.4.873.232.232,0,0,1-.212.287.6.6,0,0,1-.521-.166,2.282,2.282,0,0,1-.5-.605,4.731,4.731,0,0,0-.617-1.1,2.491,2.491,0,0,1-.317-.642,7.46,7.46,0,0,1-.681-1.254.693.693,0,0,1,.377-.912c.165-.079.266-.237.41-.335a11.654,11.654,0,0,0,1.132-.788.606.606,0,0,1,.949.307c.24.613.133.872-.48,1.128l-.024.011c-.18.071-.433.107-.446.326s.222.391.4.467c.381.167.708.427,1.108.567.348.122.657.362,1,.522.4.189.668.05.688-.4a2.7,2.7,0,0,0-.2-1.063c-.2-.553-.454-1.087-.627-1.655-.137-.448-.357-.885-.515-1.323-.176-.487-.321-1-.5-1.49-.154-.423-.292-.851-.443-1.275a2.1,2.1,0,0,1-.159-.511c-.017-.187-.2-.314-.232-.468-.119-.5-.381-.962-.452-1.478a.639.639,0,0,0-.145-.34.5.5,0,0,1,.193-.853.266.266,0,0,1,.3.023,1.06,1.06,0,0,1,.488.69,10.031,10.031,0,0,0,.457,1.216c.222.62.407,1.255.648,1.868.192.485.352.982.529,1.472.089.246.094.523.329.7a.076.076,0,0,1,.02.049,10.612,10.612,0,0,0,.416,1.341,1.013,1.013,0,0,0,.227.529.411.411,0,0,1,.124.262c-.013.374.275.662.279,1.029a.358.358,0,0,0,.081.2,2.066,2.066,0,0,1,.272,1.335" transform="translate(-51.882 -121.434)" fill="#fff"/>
    <path id="Trazado_11828" data-name="Trazado 11828" d="M93.67,215.381a4.181,4.181,0,0,0,0,.539,1.226,1.226,0,0,1-.322.823.532.532,0,0,1-.414.223,2.053,2.053,0,0,1-1.4-.324,7.537,7.537,0,0,0-1.2-.577c-.177-.077-.25-.27-.441-.335-.134-.045-.266-.113-.377-.019a.329.329,0,0,0-.034.4,2.812,2.812,0,0,0,.444.722,1.5,1.5,0,0,1,.4.873.232.232,0,0,1-.212.287.6.6,0,0,1-.521-.166,2.282,2.282,0,0,1-.5-.605,4.731,4.731,0,0,0-.617-1.1,2.491,2.491,0,0,1-.317-.642,7.46,7.46,0,0,1-.681-1.254.693.693,0,0,1,.377-.912c.165-.079.266-.237.41-.335a11.654,11.654,0,0,0,1.132-.788.606.606,0,0,1,.949.307c.24.613.133.872-.48,1.128l-.024.011c-.18.071-.433.107-.446.326s.222.391.4.467c.381.167.708.427,1.108.567.348.122.657.362,1,.522.4.189.668.05.688-.4a2.7,2.7,0,0,0-.2-1.063c-.2-.553-.454-1.087-.627-1.655-.137-.448-.357-.885-.515-1.323-.176-.487-.321-1-.5-1.49-.154-.423-.292-.851-.443-1.275a2.1,2.1,0,0,1-.159-.511c-.017-.187-.2-.314-.232-.468-.119-.5-.381-.962-.452-1.478a.639.639,0,0,0-.145-.34.5.5,0,0,1,.193-.853.266.266,0,0,1,.3.023,1.06,1.06,0,0,1,.488.69,10.031,10.031,0,0,0,.457,1.216c.222.62.407,1.255.648,1.868.192.485.352.982.529,1.472.089.246.094.523.329.7a.076.076,0,0,1,.02.049,10.612,10.612,0,0,0,.416,1.341,1.013,1.013,0,0,0,.227.529.411.411,0,0,1,.124.262c-.013.374.275.662.279,1.029a.358.358,0,0,0,.081.2A2.066,2.066,0,0,1,93.67,215.381Z" transform="translate(-51.882 -121.434)" fill="#fff" stroke="#fff" stroke-miterlimit="10" stroke-width="1"/>
    <path id="Trazado_11829" data-name="Trazado 11829" d="M176.466,220.18a5.841,5.841,0,0,1,.315-1.711c.12-.489.438-.884.513-1.382a1.621,1.621,0,0,1,.368-.9c.132-.145-.056-.248-.124-.331-.083-.1-.194.013-.235.09-.207.39-.638.525-.921.829a.423.423,0,0,1-.526.013c-.151-.081-.072-.222-.1-.334-.1-.379.183-.594.391-.812a15.19,15.19,0,0,1,1.346-1.283,8.648,8.648,0,0,1,1.2-1.079c.306-.17.627-.14.7.236.1.552.244,1.1.329,1.653a5.736,5.736,0,0,0,.295,1.017,1.167,1.167,0,0,1-.395,1.374c-.171.122-.32.035-.446-.107-.241-.268-.2-.615-.27-.931a2.45,2.45,0,0,1-.019-.269.156.156,0,0,0-.122-.159.161.161,0,0,0-.172.107,4.5,4.5,0,0,0-.493,1.281,1.938,1.938,0,0,1-.159.507,1.146,1.146,0,0,0-.162.42,2.039,2.039,0,0,1-.343.993.651.651,0,0,0,.359.955.148.148,0,0,0,.128,0,13.476,13.476,0,0,0,1.558-.8c.324-.215.705-.342,1.04-.543.543-.327,1.147-.538,1.68-.867.418-.258.866-.442,1.283-.686.3-.174.589-.359.9-.5a.489.489,0,0,1,.533-.012.5.5,0,0,1,.116.544,1.351,1.351,0,0,1-.829.969,6.352,6.352,0,0,0-.909.433c-.571.376-1.184.675-1.78.99-.623.33-1.237.685-1.87,1-.324.161-.654.379-.984.554a2.353,2.353,0,0,1-1.134.474,1.174,1.174,0,0,1-.982-.814,2.4,2.4,0,0,1-.076-.339c-.013-.2,0-.4,0-.579" transform="translate(-104.283 -126.508)" fill="#fff"/>
    <path id="Trazado_11830" data-name="Trazado 11830" d="M176.466,220.18a5.841,5.841,0,0,1,.315-1.711c.12-.489.438-.884.513-1.382a1.621,1.621,0,0,1,.368-.9c.132-.145-.056-.248-.124-.331-.083-.1-.194.013-.235.09-.207.39-.638.525-.921.829a.423.423,0,0,1-.526.013c-.151-.081-.072-.222-.1-.334-.1-.379.183-.594.391-.812a15.19,15.19,0,0,1,1.346-1.283,8.648,8.648,0,0,1,1.2-1.079c.306-.17.627-.14.7.236.1.552.244,1.1.329,1.653a5.736,5.736,0,0,0,.295,1.017,1.167,1.167,0,0,1-.395,1.374c-.171.122-.32.035-.446-.107-.241-.268-.2-.615-.27-.931a2.45,2.45,0,0,1-.019-.269.156.156,0,0,0-.122-.159.161.161,0,0,0-.172.107,4.5,4.5,0,0,0-.493,1.281,1.938,1.938,0,0,1-.159.507,1.146,1.146,0,0,0-.162.42,2.039,2.039,0,0,1-.343.993.651.651,0,0,0,.359.955.148.148,0,0,0,.128,0,13.476,13.476,0,0,0,1.558-.8c.324-.215.705-.342,1.04-.543.543-.327,1.147-.538,1.68-.867.418-.258.866-.442,1.283-.686.3-.174.589-.359.9-.5a.489.489,0,0,1,.533-.012.5.5,0,0,1,.116.544,1.351,1.351,0,0,1-.829.969,6.352,6.352,0,0,0-.909.433c-.571.376-1.184.675-1.78.99-.623.33-1.237.685-1.87,1-.324.161-.654.379-.984.554a2.353,2.353,0,0,1-1.134.474,1.174,1.174,0,0,1-.982-.814,2.4,2.4,0,0,1-.076-.339C176.457,220.563,176.466,220.364,176.466,220.18Z" transform="translate(-104.283 -126.508)" fill="#fff" stroke="#fff" stroke-miterlimit="10" stroke-width="1"/>
    <path id="Trazado_11831" data-name="Trazado 11831" d="M193.663,178.116a13.209,13.209,0,0,1-.218,1.566,8.831,8.831,0,0,0-.2,1.676,1.518,1.518,0,0,1-.816,1.134c-.008,0-.016.011-.024.011-.416-.027-.784.207-1.2.216a3.214,3.214,0,0,0-.847.136.558.558,0,0,1-.615-.131.538.538,0,0,1-.052-.607.949.949,0,0,1,1.029-.715.508.508,0,0,0,.605-.37.264.264,0,0,0,0-.208,9.846,9.846,0,0,0-1.15-1.871c-.192-.215-.333-.146-.546.051-.424.391-.453.953-.672,1.426a7.316,7.316,0,0,0-.594,1.89.536.536,0,0,1-.129.289,1,1,0,0,0-.265.757.284.284,0,0,1-.038.182c-.321.351-.27.82-.4,1.23-.083.261-.3.458-.332.747a2.168,2.168,0,0,1-.322.9.6.6,0,0,0-.05.316.7.7,0,0,1-.211.527c-.221.218-.172.537-.255.807-.12.391-.279.767-.383,1.166a1.809,1.809,0,0,1-.446.678c-.189.2-.469.106-.556-.182a.731.731,0,0,1,.01-.451c.114-.343.218-.689.334-1.031a1.014,1.014,0,0,1,.139-.257.648.648,0,0,0,.155-.365,2.21,2.21,0,0,1,.366-1.04c.067-.139.023-.33.087-.472.2-.435.257-.918.435-1.342.153-.364.263-.731.4-1.095a6.8,6.8,0,0,0,.362-1.164.476.476,0,0,1,.094-.188,1.363,1.363,0,0,0,.283-.795.511.511,0,0,1,.042-.235,2.23,2.23,0,0,0,.335-.943c.013-.323.325-.516.381-.838a3.335,3.335,0,0,1,1.29-1.95.933.933,0,0,1,1.113.052,4.962,4.962,0,0,1,1.264,2.029c.035.106.076.2.188.181a.22.22,0,0,0,.2-.189c.115-.6.345-1.182.43-1.794a.531.531,0,0,1,.391-.431.225.225,0,0,1,.33.168,1.509,1.509,0,0,1,.067.53" transform="translate(-109.746 -105.269)" fill="#fff"/>
    <path id="Trazado_11832" data-name="Trazado 11832" d="M193.663,178.116a13.209,13.209,0,0,1-.218,1.566,8.831,8.831,0,0,0-.2,1.676,1.518,1.518,0,0,1-.816,1.134c-.008,0-.016.011-.024.011-.416-.027-.784.207-1.2.216a3.214,3.214,0,0,0-.847.136.558.558,0,0,1-.615-.131.538.538,0,0,1-.052-.607.949.949,0,0,1,1.029-.715.508.508,0,0,0,.605-.37.264.264,0,0,0,0-.208,9.846,9.846,0,0,0-1.15-1.871c-.192-.215-.333-.146-.546.051-.424.391-.453.953-.672,1.426a7.316,7.316,0,0,0-.594,1.89.536.536,0,0,1-.129.289,1,1,0,0,0-.265.757.284.284,0,0,1-.038.182c-.321.351-.27.82-.4,1.23-.083.261-.3.458-.332.747a2.168,2.168,0,0,1-.322.9.6.6,0,0,0-.05.316.7.7,0,0,1-.211.527c-.221.218-.172.537-.255.807-.12.391-.279.767-.383,1.166a1.809,1.809,0,0,1-.446.678c-.189.2-.469.106-.556-.182a.731.731,0,0,1,.01-.451c.114-.343.218-.689.334-1.031a1.014,1.014,0,0,1,.139-.257.648.648,0,0,0,.155-.365,2.21,2.21,0,0,1,.366-1.04c.067-.139.023-.33.087-.472.2-.435.257-.918.435-1.342.153-.364.263-.731.4-1.095a6.8,6.8,0,0,0,.362-1.164.476.476,0,0,1,.094-.188,1.363,1.363,0,0,0,.283-.795.511.511,0,0,1,.042-.235,2.23,2.23,0,0,0,.335-.943c.013-.323.325-.516.381-.838a3.335,3.335,0,0,1,1.29-1.95.933.933,0,0,1,1.113.052,4.962,4.962,0,0,1,1.264,2.029c.035.106.076.2.188.181a.22.22,0,0,0,.2-.189c.115-.6.345-1.182.43-1.794a.531.531,0,0,1,.391-.431.225.225,0,0,1,.33.168A1.509,1.509,0,0,1,193.663,178.116Z" transform="translate(-109.746 -105.269)" fill="#fff" stroke="#fff" stroke-miterlimit="10" stroke-width="1"/>
    <path id="Trazado_11833" data-name="Trazado 11833" d="M63.193,205.608c-.124-.464.194-.969.5-1.477q.2-.327.4-.653c.242-.387.1-.654-.353-.679-.09,0-.18,0-.27,0a.637.637,0,0,1-.693-.5.693.693,0,0,1,.066-.693.643.643,0,0,1,.667-.122,9.468,9.468,0,0,0,1.308.131,1.122,1.122,0,0,1,1.053,1.029A9.5,9.5,0,0,0,66,203.76c.059.282.2.545.267.832a4.852,4.852,0,0,1,.093,1.015c0,.151.132.283.048.443-.055.1-.033.261-.2.281a.418.418,0,0,1-.423-.176,1.061,1.061,0,0,1-.23-.725,1.9,1.9,0,0,0-.381-1.058c-.117-.225-.263-.207-.34.037a13.014,13.014,0,0,1-.723,1.406.9.9,0,0,0,.08.939,2.206,2.206,0,0,0,.865.685c.742.376,1.48.76,2.222,1.134s1.476.709,2.193,1.1c.336.184.7.315,1.021.51a1.434,1.434,0,0,1,.681.934.367.367,0,0,1-.536.4,2.693,2.693,0,0,1-.836-.454c-.1-.1-.242-.109-.36-.172-.675-.359-1.369-.681-2.033-1.058-.751-.427-1.541-.764-2.318-1.136A3.767,3.767,0,0,1,63.428,207a3.471,3.471,0,0,1-.235-1.394" transform="translate(-37.22 -119.539)" fill="#fff"/>
    <path id="Trazado_11834" data-name="Trazado 11834" d="M63.193,205.608c-.124-.464.194-.969.5-1.477q.2-.327.4-.653c.242-.387.1-.654-.353-.679-.09,0-.18,0-.27,0a.637.637,0,0,1-.693-.5.693.693,0,0,1,.066-.693.643.643,0,0,1,.667-.122,9.468,9.468,0,0,0,1.308.131,1.122,1.122,0,0,1,1.053,1.029A9.5,9.5,0,0,0,66,203.76c.059.282.2.545.267.832a4.852,4.852,0,0,1,.093,1.015c0,.151.132.283.048.443-.055.1-.033.261-.2.281a.418.418,0,0,1-.423-.176,1.061,1.061,0,0,1-.23-.725,1.9,1.9,0,0,0-.381-1.058c-.117-.225-.263-.207-.34.037a13.014,13.014,0,0,1-.723,1.406.9.9,0,0,0,.08.939,2.206,2.206,0,0,0,.865.685c.742.376,1.48.76,2.222,1.134s1.476.709,2.193,1.1c.336.184.7.315,1.021.51a1.434,1.434,0,0,1,.681.934.367.367,0,0,1-.536.4,2.693,2.693,0,0,1-.836-.454c-.1-.1-.242-.109-.36-.172-.675-.359-1.369-.681-2.033-1.058-.751-.427-1.541-.764-2.318-1.136A3.767,3.767,0,0,1,63.428,207,3.471,3.471,0,0,1,63.193,205.608Z" transform="translate(-37.22 -119.539)" fill="#fff" stroke="#fff" stroke-miterlimit="10" stroke-width="1"/>
  </g>
</svg>
