<svg xmlns="http://www.w3.org/2000/svg" xmlns:xlink="http://www.w3.org/1999/xlink" width="141.781" height="104.563" viewBox="0 0 141.781 104.563">
  <defs>
    <clipPath id="clip-path">
      <rect id="Rectángulo_5399" data-name="Rectángulo 5399" width="141.781" height="104.563" fill="#fff"/>
    </clipPath>
  </defs>
  <g id="Grupo_12953" data-name="Grupo 12953" clip-path="url(#clip-path)">
    <path id="Trazado_11852" data-name="Trazado 11852" d="M61.737,52.145c0-8.521.05-17.043-.042-25.564a3.136,3.136,0,0,1,2.085-3.3Q87.57,11.933,111.3.467a4.038,4.038,0,0,1,3.869.056Q139,12.05,162.875,23.474a2.665,2.665,0,0,1,1.725,2.834c-.06,6.86.022,13.721-.066,20.581-.02,1.595.348,2.456,1.97,2.987,2.731.893,5.362,2.09,8.049,3.125.926.356,1.633.777,1.776,1.907,1.784,14.073-1.936,33.071-20.494,39.908a5.922,5.922,0,0,1-4.592.023,28.784,28.784,0,0,1-6.533-3.314c-1.265-.966-2.235-.755-3.493-.145-8.815,4.27-17.662,8.473-26.48,12.735a3.029,3.029,0,0,1-2.99.1Q87.841,92.6,63.859,81.152A3.23,3.23,0,0,1,61.7,77.709c.088-8.52.04-17.042.039-25.564M64.944,53c0,7.728.023,15.457-.024,23.185a2.339,2.339,0,0,0,1.486,2.507Q88.047,89.035,109.631,99.5c1.338.648,1.849.634,1.844-1.081q-.066-23.185,0-46.369a2.165,2.165,0,0,0-1.426-2.324c-2.89-1.294-5.761-2.642-8.566-4.108-1.546-.808-2.025-.73-2,1.2.094,7.51.035,15.023.041,22.534,0,1.036.043,2.117-1.19,2.5-1.209.375-1.836-.5-2.451-1.334q-2.494-3.406-5.014-6.793c-1.506-2.022-2.745-5.251-4.631-5.694-1.83-.429-4.333,2.009-6.541,3.189-.063.034-.121.079-.184.114-2.657,1.465-3.512.983-3.516-2.02-.009-8.017-.048-16.035.038-24.051A2.547,2.547,0,0,0,74.283,32.5c-2.569-1.125-5.11-2.328-7.594-3.63-1.5-.786-1.781-.38-1.77,1.159.055,7.656.025,15.312.025,22.968m36.8-11.026c3.815,1.842,7.134,3.4,10.409,5.051a2.44,2.44,0,0,0,2.415-.192q21.392-10.313,42.793-20.61c.432-.209,1.18-.209,1.175-1.082L115.166,4.216a6.3,6.3,0,0,1-.971-.467c-.878-.633-1.624-.17-2.408.207q-8.954,4.3-17.915,8.6c-8.757,4.207-17.51,8.421-26.629,12.807,3.119,1.513,5.973,2.829,8.755,4.281a3.184,3.184,0,0,0,3.218-.033c8.015-3.936,16.072-7.787,24.09-11.718a3.332,3.332,0,0,1,3.248-.09c6.209,3.039,12.452,6.006,18.682,9,.855.411,1.729.828,1.675,2-.049,1.056-.87,1.425-1.652,1.8-3.955,1.911-7.919,3.806-11.874,5.716-3.736,1.8-7.465,3.62-11.635,5.644m30.06,31.782c-2.479,1.188-4.883,2.338-7.284,3.493a1.56,1.56,0,0,1-2.345-.763,1.521,1.521,0,0,1,.9-2.131,57.259,57.259,0,0,1,6.834-3.206c1.176-.4,1.25-.688,1.034-1.706-.908-4.272-.723-8.611-.634-12.937a3.675,3.675,0,0,1,2.758-3.82,132.3,132.3,0,0,0,13.45-5.3c4.481-2.146,8.727-3.041,13.2-.227,1.244.783,1.721.347,1.7-1.139-.068-5.2-.023-10.4-.027-15.6,0-2.329-.01-2.335-2.162-1.3-14.2,6.829-28.4,13.683-42.629,20.455a2.591,2.591,0,0,0-1.705,2.794c.066,6.931.03,13.864.03,20.8q0,12.348,0,24.7c0,2.43.016,2.435,2.286,1.347q5.261-2.521,10.517-5.054c4.115-1.983,8.226-3.972,12.5-6.036a51.521,51.521,0,0,1-5.376-6.867c-.156,1.055-.489,1.58-1.116,1.877-3.125,1.479-6.252,2.953-9.365,4.455a1.616,1.616,0,1,1-1.379-2.922c3.688-1.659,7.091-3.968,11.145-4.9l-2.331-6.006M133.522,62.8c.135,1.221.274,3.534.662,5.8,1.793,10.506,7.022,18.429,17.146,22.681a5.42,5.42,0,0,0,4.523-.045c12.41-5.166,20.357-20.717,17.49-34.187a1.969,1.969,0,0,0-1.481-1.573c-5.7-2.217-11.41-4.4-17.086-6.668a3.255,3.255,0,0,0-2.665.05c-4.605,1.845-9.238,3.622-13.856,5.435-4.955,1.945-4.953,1.951-4.732,8.5M81.435,32.212c5.2,2.5,10.076,4.792,14.9,7.2a3.232,3.232,0,0,0,3.217-.066c6.657-3.271,13.346-6.476,20.015-9.722.52-.253,1.2-.332,1.526-1.1-5.1-2.464-10.162-4.9-15.211-7.35a2.311,2.311,0,0,0-2.222.245c-3.68,1.818-7.384,3.588-11.077,5.379-3.606,1.748-7.212,3.5-11.144,5.41M79.194,57.64c1.908-1.057,3.531-1.946,5.144-2.853,2.849-1.6,2.919-1.585,4.855,1.043q3.231,4.384,6.484,8.752c.4-7.007.383-13.845.416-20.682.005-1.1-.807-1.231-1.487-1.56-4.016-1.948-8.027-3.906-12.062-5.812a8.613,8.613,0,0,0-3.35-1.313Z" transform="translate(-34.948 0)" fill="#fff"/>
    <path id="Trazado_11853" data-name="Trazado 11853" d="M276.731,139.748a2.666,2.666,0,0,1-.819,1.71q-5.295,6.967-10.608,13.919c-1.315,1.712-2.288,1.721-3.557.054-1.7-2.234-3.345-4.514-5.049-6.746-.732-.959-1.2-1.986-.08-2.825,1.071-.8,2-.238,2.729.783,1,1.405,2.174,2.7,3.087,4.161.893,1.426,1.351,1.1,2.2-.063,2.678-3.662,5.47-7.24,8.235-10.837a6.546,6.546,0,0,1,1.462-1.56,1.556,1.556,0,0,1,2.4,1.405" transform="translate(-144.988 -78.22)" fill="#fff"/>
    <path id="Trazado_11854" data-name="Trazado 11854" d="M34.947,121.881H15.123a2.016,2.016,0,1,1,0-4.033H34.947a2.016,2.016,0,1,1,0,4.033" transform="translate(-7.424 -66.758)" fill="#fff"/>
    <path id="Trazado_11855" data-name="Trazado 11855" d="M46.868,140.261H37.786a1.754,1.754,0,1,1,0-3.508h9.082a1.754,1.754,0,1,1,0,3.508" transform="translate(-20.411 -77.468)" fill="#fff"/>
    <path id="Trazado_11856" data-name="Trazado 11856" d="M22.717,140.261h-.583a1.754,1.754,0,1,1,0-3.508h.583a1.754,1.754,0,1,1,0,3.508" transform="translate(-11.545 -77.468)" fill="#fff"/>
    <path id="Trazado_11857" data-name="Trazado 11857" d="M5.277,160.968H1.619a1.619,1.619,0,1,1,0-3.238H5.277a1.619,1.619,0,1,1,0,3.238" transform="translate(0 -89.351)" fill="#fff"/>
    <path id="Trazado_11858" data-name="Trazado 11858" d="M41.855,160.968H25.35a1.619,1.619,0,1,1,0-3.238H41.855a1.619,1.619,0,1,1,0,3.238" transform="translate(-13.443 -89.351)" fill="#fff"/>
  </g>
</svg>
