<svg id="Grupo_12951" data-name="Grupo 12951" xmlns="http://www.w3.org/2000/svg" xmlns:xlink="http://www.w3.org/1999/xlink" width="115.449" height="116.428" viewBox="0 0 115.449 116.428">
  <defs>
    <clipPath id="clip-path">
      <rect id="Rectángulo_5398" data-name="Rectángulo 5398" width="115.449" height="116.428" fill="#fff"/>
    </clipPath>
  </defs>
  <g id="Grupo_12952" data-name="Grupo 12952" clip-path="url(#clip-path)">
    <path id="Trazado_11835" data-name="Trazado 11835" d="M48.019,22.2c-.066-.613-.377-.737-.932-.592-.745.19-1.5.331-2.414.53.149-.538.3-1.069.439-1.59-.373.2-.745.406-1.118.6-.108.393-.219.783-.327,1.176-.207.745-.029.923.754.774.708-.137,1.416-.282,2.112-.464.439-.112.634,0,.687.46l.025.2c.282-.153.567-.306.849-.464-.029-.212-.054-.422-.075-.634m55.546,17.73c-1.118-1.085-1.271-1.7-.066-2.857,3.623-3.5,7.122-7.126,10.641-10.728,1.9-1.946,1.764-2.774-.613-4.066C100.224,15.041,86.9,7.836,73.62.544c-1.66-.911-2.7-.642-3.95.65C66.126,4.871,62.437,8.4,58.9,12.084c-.985,1.027-1.486.882-2.389-.05-1.756-1.809-3.54-3.59-5.329-5.37L49.94,5.422l1.354,6.236c.406.405.816.807,1.226,1.2q.665.658,1.333,1.3c1.006.977.65,1.312-.369,1.859-.083.046-.166.091-.248.132-.286.157-.576.311-.861.468.207.948.41,1.9.617,2.845l.137.634c.29-.157.576-.315.865-.468.729-.4,1.458-.791,2.186-1.188.841-.455,1.544-.874,2.629-.278q2.727,1.491,5.457,2.982c.277.153.555.306.836.455.4-1,.791-2.008,1.188-3.01l.079-.195-.828-.447L61.981,16.03c-.99-.53-1.429-.849-.4-1.851,3.267-3.167,6.447-6.426,9.664-9.639.286-.286.621-.526.927-.787.489.244.927.447,1.346.675q17.95,9.757,35.907,19.5c1.317.708,1.308,1.126.282,2.128-3.068,2.973-6.054,6.032-9.031,9.1-.8.828-1.4,1.151-2.6.493Q87.845,30.03,77.587,24.473c-.282-.157-.567-.311-.849-.46-.426,1.077-.853,2.158-1.279,3.234l.845.46Q85.682,32.8,95.061,37.889a9.944,9.944,0,0,1,.936.667c-10.385,5.635-20.641,11.233-30.93,16.769-2.464,1.325-4.853,3.759-7.457,3.594-2.5-.161-4.886-2.3-7.3-3.615Q34.982,47,19.643,38.655c.2-.741.874-.836,1.362-1.1q10.267-5.59,20.546-11.167l.87-.472c-.257-1.164-.509-2.331-.762-3.495-.29.157-.58.311-.865.472Q29.061,29.239,17.349,35.644a1.692,1.692,0,0,1-2.455-.36c-3.006-3.134-6.049-6.24-9.176-9.258-1.106-1.064-.9-1.466.34-2.124,5.656-3,11.267-6.083,16.885-9.142a17.585,17.585,0,0,0,2.3-1.379,1.411,1.411,0,0,0,.576-1.64,1.607,1.607,0,0,0-1.275-1.213,3.315,3.315,0,0,0-2.141.609Q12.066,16.763,1.735,22.4c-2.141,1.172-2.273,2.028-.551,3.8C4.7,29.81,8.2,33.429,11.813,36.94c1.164,1.13,1.4,1.751.075,3.01C8.282,43.367,4.853,46.969,1.363,50.5c-1.95,1.975-1.822,2.845.65,4.207,3.379,1.855,6.724,3.772,10.173,5.483a2.948,2.948,0,0,1,1.838,3.2c-.1,4.55-.037,9.1-.037,13.659,0,4.7.046,9.387-.025,14.078a2.88,2.88,0,0,0,1.731,2.936q20.192,10.876,40.321,21.862a3.17,3.17,0,0,0,3.437-.008q20.036-10.937,40.143-21.751a3.193,3.193,0,0,0,1.9-3.259c-.066-9.316,0-18.633-.062-27.949a2.448,2.448,0,0,1,1.482-2.571c3.544-1.83,7.035-3.768,10.534-5.685,2.468-1.354,2.588-2.228.629-4.211-3.491-3.536-6.944-7.109-10.513-10.562M5.677,52.828c-.89-.48-1.027-.8-.244-1.569q4.857-4.789,9.606-9.7a1.5,1.5,0,0,1,2.124-.365q18.484,10.087,37,20.107a5.829,5.829,0,0,1,.741.688c-3.66,3.569-7.316,7.117-10.948,10.687-.584.572-1.039.36-1.636.037Q24.012,62.746,5.677,52.828M55.973,68q.025,20.788.008,41.58c0,2.368-.012,2.373-2.137,1.226Q36.423,101.364,19,91.923c-.94-.505-1.656-.919-1.644-2.269.079-8.48.037-16.96.041-25.444a7.31,7.31,0,0,1,.087-.77c.841-.087,1.362.438,1.942.754Q30.138,69.982,40.831,75.82c3.134,1.7,3.13,1.694,5.722-.9,3.006-3,6.02-5.987,9.068-9.018.584.737.352,1.445.352,2.1m36.5-5.789c-.6.332-1.221.642-1.814,1-.932.567-1.433,1.345-.824,2.409a1.622,1.622,0,0,0,2.476.567c1.8-.973,3.615-1.929,5.755-3.064v2.038c0,8-.029,16.007.025,24.011a2.612,2.612,0,0,1-1.557,2.749Q78.873,101.385,61.3,111.008c-1.271.7-1.867.894-1.863-.969.05-14.281.029-28.566.037-42.847,0-.381-.153-.828.385-1.233,3.047,3.027,6.116,6.057,9.171,9.1,2.464,2.456,2.455,2.464,5.582.766q5.348-2.907,10.7-5.814c1.093-.6,2.178-1.317,1.4-2.716-.766-1.366-1.983-.882-3.072-.294-3.387,1.839-6.762,3.7-10.153,5.524-.617.335-1.2.944-2,.149-3.619-3.582-7.279-7.118-11.126-10.865,4.356-2.36,8.285-4.488,12.215-6.62,8.468-4.6,16.948-9.184,25.39-13.83a1.858,1.858,0,0,1,2.65.369c3.424,3.392,6.952,6.679,10.67,10.227L92.468,62.21M46.354,1.782a.858.858,0,0,1,.041.133c.066.331-.008.493-.352.559-.89.182-1.776.381-2.662.576-.836.182-1.673.352-2.505.551-.36.087-.534.012-.617-.377s.108-.455.4-.518q2.59-.553,5.167-1.126a.7.7,0,0,1,.315-.017c-.137-.136-.273-.277-.406-.418S45.473.88,45.344.764c-1.122-.969-2.161-1-3.582-.186-3.826,2.19-7.731,4.232-11.6,6.343-1.077.588-2.178,1.3-1.433,2.716s1.909.949,3.023.336C33.6,8.958,35.465,7.96,37.324,6.95c.29-.157.58-.311.865-.472-.021-.1-.046-.207-.066-.311-.215-.982-.19-1.023.787-1.238l3.428-.745a1.665,1.665,0,0,1,.919-.2q2.161-.472,4.327-.94-.615-.627-1.23-1.263M50.2,18.171c-.352.063-.708.129-1.056.2q-1.192.64-2.381,1.288a.877.877,0,0,0,.716.029c.617-.166,1.25-.273,1.876-.414.3-.066.48-.021.377.348-.257.915-.513,1.826-.77,2.741.373-.2.745-.4,1.118-.6l.795-2.857c.178-.646-.012-.853-.675-.733" transform="translate(0 0)" fill="#fff"/>
    <path id="Trazado_11836" data-name="Trazado 11836" d="M75.036,180.307a3,3,0,0,1,1.37.6,2.543,2.543,0,0,1,.7,1.043c.237.447.337.947.562,1.394.128.252.1.536.225.785a1.837,1.837,0,0,1,.223.631c.017.145.085.333.314.31a.421.421,0,0,0,.349-.369c.046-.183.1-.37.126-.558a.478.478,0,0,1,.343-.447.528.528,0,0,1,.6.272,1.253,1.253,0,0,1,.058,1.2,2.773,2.773,0,0,0-.186.794,2.521,2.521,0,0,1-.316.917,2.465,2.465,0,0,0-.153.689.976.976,0,0,1-.308.532.369.369,0,0,1-.523.019c-.2-.182-.431-.3-.634-.46-.413-.335-.855-.641-1.255-.982a3.982,3.982,0,0,1-.988-.873.846.846,0,0,1-.111-.771.354.354,0,0,1,.489-.243,2.752,2.752,0,0,1,.922.7c.138.152.264.219.436.055.054-.052.079-.1.044-.169a10.454,10.454,0,0,1-.463-1.21q-.382-.955-.711-1.927a.824.824,0,0,0-.471-.465.61.61,0,0,0-.742.341c-.165.3-.257.649-.44.927-.26.4-.454.823-.7,1.225-.312.519-.582,1.058-.85,1.6a13.079,13.079,0,0,1-.743,1.284,7.656,7.656,0,0,0-.552,1.019.507.507,0,0,1-.475.346.749.749,0,0,1-.547-.466,1.183,1.183,0,0,1,.169-.942,16.855,16.855,0,0,0,1.071-2.031,3.147,3.147,0,0,1,.417-.691c.232-.368.37-.784.632-1.135a3.112,3.112,0,0,0,.335-.683,14.049,14.049,0,0,1,1.017-1.81.752.752,0,0,1,.761-.453" transform="translate(-41.36 -105.644)" fill="#fff"/>
    <path id="Trazado_11837" data-name="Trazado 11837" d="M75.036,180.307a3,3,0,0,1,1.37.6,2.543,2.543,0,0,1,.7,1.043c.237.447.337.947.562,1.394.128.252.1.536.225.785a1.837,1.837,0,0,1,.223.631c.017.145.085.333.314.31a.421.421,0,0,0,.349-.369c.046-.183.1-.37.126-.558a.478.478,0,0,1,.343-.447.528.528,0,0,1,.6.272,1.253,1.253,0,0,1,.058,1.2,2.773,2.773,0,0,0-.186.794,2.521,2.521,0,0,1-.316.917,2.465,2.465,0,0,0-.153.689.976.976,0,0,1-.308.532.369.369,0,0,1-.523.019c-.2-.182-.431-.3-.634-.46-.413-.335-.855-.641-1.255-.982a3.982,3.982,0,0,1-.988-.873.846.846,0,0,1-.111-.771.354.354,0,0,1,.489-.243,2.752,2.752,0,0,1,.922.7c.138.152.264.219.436.055.054-.052.079-.1.044-.169a10.454,10.454,0,0,1-.463-1.21q-.382-.955-.711-1.927a.824.824,0,0,0-.471-.465.61.61,0,0,0-.742.341c-.165.3-.257.649-.44.927-.26.4-.454.823-.7,1.225-.312.519-.582,1.058-.85,1.6a13.079,13.079,0,0,1-.743,1.284,7.656,7.656,0,0,0-.552,1.019.507.507,0,0,1-.475.346.749.749,0,0,1-.547-.466,1.183,1.183,0,0,1,.169-.942,16.855,16.855,0,0,0,1.071-2.031,3.147,3.147,0,0,1,.417-.691c.232-.368.37-.784.632-1.135a3.112,3.112,0,0,0,.335-.683,14.049,14.049,0,0,1,1.017-1.81A.752.752,0,0,1,75.036,180.307Z" transform="translate(-41.36 -105.644)" fill="#fff" stroke="#fff" stroke-miterlimit="10" stroke-width="1"/>
    <path id="Trazado_11838" data-name="Trazado 11838" d="M208.506,199.2c0,.185,0,.314,0,.442-.012.265.039.528-.2.761-.126.125-.1.389-.207.552-.2.309-.438.592-.661.885a3.279,3.279,0,0,1-1.122.775c-.393.22-.784.442-1.191.637a2.708,2.708,0,0,1-.368.168.325.325,0,0,0-.164.552,1.571,1.571,0,0,0,.434.358.83.83,0,0,1,.361,1.115c-.15.275-.279.525-.655.517a.724.724,0,0,1-.475-.241c-.5-.455-1.05-.856-1.543-1.319a.773.773,0,0,1-.079-1.086,6.385,6.385,0,0,0,.629-1.271.8.8,0,0,1,.24-.382.366.366,0,0,0,.151-.28.557.557,0,0,1,.092-.254,2.326,2.326,0,0,0,.317-.681.514.514,0,0,1,.24-.349.4.4,0,0,0,.163-.3.661.661,0,0,1,.427-.524c.214-.106.368-.051.4.18a1.5,1.5,0,0,1-.315,1.3,3.546,3.546,0,0,0-.459.765.365.365,0,0,0,.032.438c.137.125.28.026.422-.055a7.283,7.283,0,0,0,.747-.383,13.081,13.081,0,0,0,1.414-.9,1.753,1.753,0,0,0,.294-1.31,4.845,4.845,0,0,0-.625-1.154c-.265-.516-.575-1.015-.872-1.517a11.856,11.856,0,0,0-1.017-1.713,2.747,2.747,0,0,1-.372-.658,10.878,10.878,0,0,1-.6-1.153,1.244,1.244,0,0,1,.263-1.266.334.334,0,0,1,.5.051c.318.468.59.963.865,1.458a10.147,10.147,0,0,0,.854,1.44,3.479,3.479,0,0,1,.346.548,15.17,15.17,0,0,1,.926,1.739c.041.112.15.18.221.271.14.18.176.447.306.595a1.762,1.762,0,0,1,.277,1.255" transform="translate(-118.627 -112.356)" fill="#fff"/>
    <path id="Trazado_11839" data-name="Trazado 11839" d="M208.506,199.2c0,.185,0,.314,0,.442-.012.265.039.528-.2.761-.126.125-.1.389-.207.552-.2.309-.438.592-.661.885a3.279,3.279,0,0,1-1.122.775c-.393.22-.784.442-1.191.637a2.708,2.708,0,0,1-.368.168.325.325,0,0,0-.164.552,1.571,1.571,0,0,0,.434.358.83.83,0,0,1,.361,1.115c-.15.275-.279.525-.655.517a.724.724,0,0,1-.475-.241c-.5-.455-1.05-.856-1.543-1.319a.773.773,0,0,1-.079-1.086,6.385,6.385,0,0,0,.629-1.271.8.8,0,0,1,.24-.382.366.366,0,0,0,.151-.28.557.557,0,0,1,.092-.254,2.326,2.326,0,0,0,.317-.681.514.514,0,0,1,.24-.349.4.4,0,0,0,.163-.3.661.661,0,0,1,.427-.524c.214-.106.368-.051.4.18a1.5,1.5,0,0,1-.315,1.3,3.546,3.546,0,0,0-.459.765.365.365,0,0,0,.032.438c.137.125.28.026.422-.055a7.283,7.283,0,0,0,.747-.383,13.081,13.081,0,0,0,1.414-.9,1.753,1.753,0,0,0,.294-1.31,4.845,4.845,0,0,0-.625-1.154c-.265-.516-.575-1.015-.872-1.517a11.856,11.856,0,0,0-1.017-1.713,2.747,2.747,0,0,1-.372-.658,10.878,10.878,0,0,1-.6-1.153,1.244,1.244,0,0,1,.263-1.266.334.334,0,0,1,.5.051c.318.468.59.963.865,1.458a10.147,10.147,0,0,0,.854,1.44,3.479,3.479,0,0,1,.346.548,15.17,15.17,0,0,1,.926,1.739c.041.112.15.18.221.271.14.18.176.447.306.595A1.762,1.762,0,0,1,208.506,199.2Z" transform="translate(-118.627 -112.356)" fill="#fff" stroke="#fff" stroke-miterlimit="10" stroke-width="1"/>
    <path id="Trazado_11840" data-name="Trazado 11840" d="M93.784,215.576a4.257,4.257,0,0,0,0,.549,1.249,1.249,0,0,1-.328.838.542.542,0,0,1-.422.227,2.091,2.091,0,0,1-1.428-.33,7.675,7.675,0,0,0-1.224-.588c-.181-.079-.254-.275-.449-.341-.136-.046-.271-.115-.384-.019a.335.335,0,0,0-.034.411,2.864,2.864,0,0,0,.453.735,1.526,1.526,0,0,1,.407.889.236.236,0,0,1-.216.292.609.609,0,0,1-.531-.169,2.324,2.324,0,0,1-.513-.616,4.818,4.818,0,0,0-.629-1.119,2.541,2.541,0,0,1-.323-.653,7.617,7.617,0,0,1-.694-1.277.706.706,0,0,1,.384-.929c.169-.081.271-.241.418-.341a11.869,11.869,0,0,0,1.153-.8.617.617,0,0,1,.966.313c.244.624.136.888-.489,1.149l-.025.012c-.183.072-.441.109-.455.332s.226.4.4.475c.388.17.721.434,1.129.578.355.125.669.368,1.018.532.409.192.681.051.7-.4a2.749,2.749,0,0,0-.2-1.083c-.2-.564-.463-1.107-.639-1.685-.139-.456-.364-.9-.525-1.347-.179-.5-.327-1.017-.509-1.518-.157-.431-.3-.867-.451-1.3a2.135,2.135,0,0,1-.162-.52c-.018-.191-.2-.32-.236-.477-.121-.513-.388-.98-.46-1.505a.651.651,0,0,0-.148-.347.507.507,0,0,1,.2-.869.271.271,0,0,1,.3.023,1.08,1.08,0,0,1,.5.7,10.214,10.214,0,0,0,.465,1.238c.226.632.414,1.278.66,1.9.2.494.358,1,.538,1.5.091.251.1.532.335.712a.077.077,0,0,1,.02.05,10.811,10.811,0,0,0,.424,1.366,1.032,1.032,0,0,0,.231.539.419.419,0,0,1,.126.267c-.013.381.28.674.284,1.048a.365.365,0,0,0,.082.2,2.1,2.1,0,0,1,.277,1.359" transform="translate(-51.229 -119.903)" fill="#fff"/>
    <path id="Trazado_11841" data-name="Trazado 11841" d="M93.784,215.576a4.257,4.257,0,0,0,0,.549,1.249,1.249,0,0,1-.328.838.542.542,0,0,1-.422.227,2.091,2.091,0,0,1-1.428-.33,7.675,7.675,0,0,0-1.224-.588c-.181-.079-.254-.275-.449-.341-.136-.046-.271-.115-.384-.019a.335.335,0,0,0-.034.411,2.864,2.864,0,0,0,.453.735,1.526,1.526,0,0,1,.407.889.236.236,0,0,1-.216.292.609.609,0,0,1-.531-.169,2.324,2.324,0,0,1-.513-.616,4.818,4.818,0,0,0-.629-1.119,2.541,2.541,0,0,1-.323-.653,7.617,7.617,0,0,1-.694-1.277.706.706,0,0,1,.384-.929c.169-.081.271-.241.418-.341a11.869,11.869,0,0,0,1.153-.8.617.617,0,0,1,.966.313c.244.624.136.888-.489,1.149l-.025.012c-.183.072-.441.109-.455.332s.226.4.4.475c.388.17.721.434,1.129.578.355.125.669.368,1.018.532.409.192.681.051.7-.4a2.749,2.749,0,0,0-.2-1.083c-.2-.564-.463-1.107-.639-1.685-.139-.456-.364-.9-.525-1.347-.179-.5-.327-1.017-.509-1.518-.157-.431-.3-.867-.451-1.3a2.135,2.135,0,0,1-.162-.52c-.018-.191-.2-.32-.236-.477-.121-.513-.388-.98-.46-1.505a.651.651,0,0,0-.148-.347.507.507,0,0,1,.2-.869.271.271,0,0,1,.3.023,1.08,1.08,0,0,1,.5.7,10.214,10.214,0,0,0,.465,1.238c.226.632.414,1.278.66,1.9.2.494.358,1,.538,1.5.091.251.1.532.335.712a.077.077,0,0,1,.02.05,10.811,10.811,0,0,0,.424,1.366,1.032,1.032,0,0,0,.231.539.419.419,0,0,1,.126.267c-.013.381.28.674.284,1.048a.365.365,0,0,0,.082.2A2.1,2.1,0,0,1,93.784,215.576Z" transform="translate(-51.229 -119.903)" fill="#fff" stroke="#fff" stroke-miterlimit="10" stroke-width="1"/>
    <path id="Trazado_11842" data-name="Trazado 11842" d="M176.48,220.306a5.948,5.948,0,0,1,.32-1.743c.122-.5.446-.9.522-1.407a1.651,1.651,0,0,1,.375-.912c.134-.147-.057-.253-.126-.337-.085-.1-.2.013-.24.092-.21.4-.649.535-.938.845a.431.431,0,0,1-.536.013c-.154-.083-.073-.226-.1-.34-.1-.385.186-.6.4-.826a15.471,15.471,0,0,1,1.371-1.307,8.814,8.814,0,0,1,1.224-1.1c.311-.173.639-.143.708.24.1.562.249,1.115.335,1.683a5.836,5.836,0,0,0,.3,1.036,1.188,1.188,0,0,1-.4,1.4c-.174.124-.325.035-.455-.108-.246-.273-.206-.626-.275-.949a2.494,2.494,0,0,1-.019-.274.159.159,0,0,0-.124-.161.164.164,0,0,0-.175.108,4.589,4.589,0,0,0-.5,1.305,1.974,1.974,0,0,1-.162.517,1.167,1.167,0,0,0-.165.428,2.077,2.077,0,0,1-.349,1.011.663.663,0,0,0,.366.972.151.151,0,0,0,.131,0,13.718,13.718,0,0,0,1.587-.818c.33-.219.718-.348,1.059-.553.553-.333,1.168-.547,1.711-.883.425-.263.882-.45,1.307-.7.3-.178.6-.365.92-.514a.5.5,0,0,1,.543-.012.509.509,0,0,1,.118.554,1.376,1.376,0,0,1-.844.986,6.471,6.471,0,0,0-.926.441c-.582.383-1.205.687-1.813,1.009-.634.336-1.26.7-1.9,1.019-.33.164-.666.386-1,.564a2.4,2.4,0,0,1-1.155.482,1.2,1.2,0,0,1-1-.829,2.444,2.444,0,0,1-.077-.345c-.013-.2,0-.4,0-.59" transform="translate(-102.97 -124.912)" fill="#fff"/>
    <path id="Trazado_11843" data-name="Trazado 11843" d="M176.48,220.306a5.948,5.948,0,0,1,.32-1.743c.122-.5.446-.9.522-1.407a1.651,1.651,0,0,1,.375-.912c.134-.147-.057-.253-.126-.337-.085-.1-.2.013-.24.092-.21.4-.649.535-.938.845a.431.431,0,0,1-.536.013c-.154-.083-.073-.226-.1-.34-.1-.385.186-.6.4-.826a15.471,15.471,0,0,1,1.371-1.307,8.814,8.814,0,0,1,1.224-1.1c.311-.173.639-.143.708.24.1.562.249,1.115.335,1.683a5.836,5.836,0,0,0,.3,1.036,1.188,1.188,0,0,1-.4,1.4c-.174.124-.325.035-.455-.108-.246-.273-.206-.626-.275-.949a2.494,2.494,0,0,1-.019-.274.159.159,0,0,0-.124-.161.164.164,0,0,0-.175.108,4.589,4.589,0,0,0-.5,1.305,1.974,1.974,0,0,1-.162.517,1.167,1.167,0,0,0-.165.428,2.077,2.077,0,0,1-.349,1.011.663.663,0,0,0,.366.972.151.151,0,0,0,.131,0,13.718,13.718,0,0,0,1.587-.818c.33-.219.718-.348,1.059-.553.553-.333,1.168-.547,1.711-.883.425-.263.882-.45,1.307-.7.3-.178.6-.365.92-.514a.5.5,0,0,1,.543-.012.509.509,0,0,1,.118.554,1.376,1.376,0,0,1-.844.986,6.471,6.471,0,0,0-.926.441c-.582.383-1.205.687-1.813,1.009-.634.336-1.26.7-1.9,1.019-.33.164-.666.386-1,.564a2.4,2.4,0,0,1-1.155.482,1.2,1.2,0,0,1-1-.829,2.444,2.444,0,0,1-.077-.345C176.47,220.7,176.48,220.493,176.48,220.306Z" transform="translate(-102.97 -124.912)" fill="#fff" stroke="#fff" stroke-miterlimit="10" stroke-width="1"/>
    <path id="Trazado_11844" data-name="Trazado 11844" d="M193.823,178.127a13.453,13.453,0,0,1-.222,1.595,8.992,8.992,0,0,0-.209,1.707,1.545,1.545,0,0,1-.831,1.154c-.008,0-.017.012-.025.011-.424-.028-.8.211-1.22.22a3.272,3.272,0,0,0-.862.139.568.568,0,0,1-.626-.134.548.548,0,0,1-.053-.619.966.966,0,0,1,1.048-.728.517.517,0,0,0,.617-.377.269.269,0,0,0,0-.212,10.028,10.028,0,0,0-1.171-1.906c-.2-.219-.339-.148-.556.052-.432.4-.462.97-.684,1.452a7.449,7.449,0,0,0-.6,1.925.546.546,0,0,1-.131.294,1.022,1.022,0,0,0-.27.771.29.29,0,0,1-.038.185c-.327.358-.275.835-.407,1.253-.084.265-.31.466-.338.761a2.208,2.208,0,0,1-.328.917.613.613,0,0,0-.051.321.715.715,0,0,1-.215.536c-.225.222-.175.547-.259.822-.122.4-.284.781-.39,1.188a1.843,1.843,0,0,1-.455.69c-.192.2-.478.108-.566-.185a.745.745,0,0,1,.01-.459c.116-.349.222-.7.34-1.05a1.032,1.032,0,0,1,.142-.262.66.66,0,0,0,.157-.372,2.251,2.251,0,0,1,.373-1.059c.068-.141.023-.336.089-.48.2-.443.262-.935.443-1.367.156-.371.268-.745.406-1.115a6.927,6.927,0,0,0,.369-1.185.486.486,0,0,1,.1-.191,1.388,1.388,0,0,0,.288-.809.521.521,0,0,1,.043-.239,2.271,2.271,0,0,0,.341-.961c.014-.329.331-.525.388-.853a3.4,3.4,0,0,1,1.313-1.986.95.95,0,0,1,1.133.053,5.053,5.053,0,0,1,1.288,2.066c.035.108.077.2.192.185a.224.224,0,0,0,.2-.193c.118-.615.351-1.2.438-1.827a.54.54,0,0,1,.4-.438.229.229,0,0,1,.336.171,1.537,1.537,0,0,1,.068.54" transform="translate(-108.364 -103.941)" fill="#fff"/>
    <path id="Trazado_11845" data-name="Trazado 11845" d="M193.823,178.127a13.453,13.453,0,0,1-.222,1.595,8.992,8.992,0,0,0-.209,1.707,1.545,1.545,0,0,1-.831,1.154c-.008,0-.017.012-.025.011-.424-.028-.8.211-1.22.22a3.272,3.272,0,0,0-.862.139.568.568,0,0,1-.626-.134.548.548,0,0,1-.053-.619.966.966,0,0,1,1.048-.728.517.517,0,0,0,.617-.377.269.269,0,0,0,0-.212,10.028,10.028,0,0,0-1.171-1.906c-.2-.219-.339-.148-.556.052-.432.4-.462.97-.684,1.452a7.449,7.449,0,0,0-.6,1.925.546.546,0,0,1-.131.294,1.022,1.022,0,0,0-.27.771.29.29,0,0,1-.038.185c-.327.358-.275.835-.407,1.253-.084.265-.31.466-.338.761a2.208,2.208,0,0,1-.328.917.613.613,0,0,0-.051.321.715.715,0,0,1-.215.536c-.225.222-.175.547-.259.822-.122.4-.284.781-.39,1.188a1.843,1.843,0,0,1-.455.69c-.192.2-.478.108-.566-.185a.745.745,0,0,1,.01-.459c.116-.349.222-.7.34-1.05a1.032,1.032,0,0,1,.142-.262.66.66,0,0,0,.157-.372,2.251,2.251,0,0,1,.373-1.059c.068-.141.023-.336.089-.48.2-.443.262-.935.443-1.367.156-.371.268-.745.406-1.115a6.927,6.927,0,0,0,.369-1.185.486.486,0,0,1,.1-.191,1.388,1.388,0,0,0,.288-.809.521.521,0,0,1,.043-.239,2.271,2.271,0,0,0,.341-.961c.014-.329.331-.525.388-.853a3.4,3.4,0,0,1,1.313-1.986.95.95,0,0,1,1.133.053,5.053,5.053,0,0,1,1.288,2.066c.035.108.077.2.192.185a.224.224,0,0,0,.2-.193c.118-.615.351-1.2.438-1.827a.54.54,0,0,1,.4-.438.229.229,0,0,1,.336.171A1.537,1.537,0,0,1,193.823,178.127Z" transform="translate(-108.364 -103.941)" fill="#fff" stroke="#fff" stroke-miterlimit="10" stroke-width="1"/>
    <path id="Trazado_11846" data-name="Trazado 11846" d="M63.2,205.682c-.126-.472.2-.987.512-1.5q.2-.334.409-.665c.246-.394.106-.667-.359-.691-.092,0-.183,0-.275,0a.648.648,0,0,1-.706-.512.705.705,0,0,1,.067-.706.654.654,0,0,1,.679-.125,9.631,9.631,0,0,0,1.332.133,1.142,1.142,0,0,1,1.073,1.048,9.672,9.672,0,0,0,.13,1.141c.06.287.2.555.272.847a4.94,4.94,0,0,1,.094,1.034c0,.154.134.288.049.451-.056.107-.034.266-.209.287a.426.426,0,0,1-.431-.179,1.08,1.08,0,0,1-.234-.739,1.934,1.934,0,0,0-.388-1.077c-.119-.229-.267-.211-.346.038a13.258,13.258,0,0,1-.736,1.432.916.916,0,0,0,.082.956,2.247,2.247,0,0,0,.881.7c.756.383,1.507.774,2.263,1.155s1.5.722,2.233,1.121c.342.188.71.321,1.04.519a1.46,1.46,0,0,1,.693.952.374.374,0,0,1-.546.4,2.743,2.743,0,0,1-.852-.462c-.1-.1-.246-.111-.366-.176-.687-.365-1.394-.693-2.07-1.077-.764-.434-1.57-.778-2.36-1.157a3.837,3.837,0,0,1-1.693-1.724,3.534,3.534,0,0,1-.239-1.42" transform="translate(-36.751 -118.032)" fill="#fff"/>
    <path id="Trazado_11847" data-name="Trazado 11847" d="M63.2,205.682c-.126-.472.2-.987.512-1.5q.2-.334.409-.665c.246-.394.106-.667-.359-.691-.092,0-.183,0-.275,0a.648.648,0,0,1-.706-.512.705.705,0,0,1,.067-.706.654.654,0,0,1,.679-.125,9.631,9.631,0,0,0,1.332.133,1.142,1.142,0,0,1,1.073,1.048,9.672,9.672,0,0,0,.13,1.141c.06.287.2.555.272.847a4.94,4.94,0,0,1,.094,1.034c0,.154.134.288.049.451-.056.107-.034.266-.209.287a.426.426,0,0,1-.431-.179,1.08,1.08,0,0,1-.234-.739,1.934,1.934,0,0,0-.388-1.077c-.119-.229-.267-.211-.346.038a13.258,13.258,0,0,1-.736,1.432.916.916,0,0,0,.082.956,2.247,2.247,0,0,0,.881.7c.756.383,1.507.774,2.263,1.155s1.5.722,2.233,1.121c.342.188.71.321,1.04.519a1.46,1.46,0,0,1,.693.952.374.374,0,0,1-.546.4,2.743,2.743,0,0,1-.852-.462c-.1-.1-.246-.111-.366-.176-.687-.365-1.394-.693-2.07-1.077-.764-.434-1.57-.778-2.36-1.157a3.837,3.837,0,0,1-1.693-1.724A3.534,3.534,0,0,1,63.2,205.682Z" transform="translate(-36.751 -118.032)" fill="#fff" stroke="#fff" stroke-miterlimit="10" stroke-width="1"/>
    <path id="Trazado_11848" data-name="Trazado 11848" d="M152.307,43.413c-.472-.12-.58-.352-.364-.807a.992.992,0,0,0-.555-1.507q-2.789-1.124-5.59-2.207a.954.954,0,0,0-1.4.629c-.2.629-.5.592-1,.385-1.279-.522-1.855-.348-2.373.774-.05.1-.1.215-.145.335q-.565,1.429-1.13,2.861-2.379,6.025-4.758,12.053-2.925,7.422-5.855,14.84c-.617,1.561-.385,2.1,1.143,2.708q4.4,1.739,8.8,3.474c1.54.609,2.087.369,2.7-1.176q5-12.676,10.012-25.345c.426-1.077.853-2.157,1.284-3.234.133-.344.269-.683.406-1.027.609-1.524.294-2.393-1.164-2.758m-7.126-3.346c.149-.36.344-.319.625-.207,1.64.654,3.275,1.3,4.919,1.942.306.12.422.253.286.592-.133.311-.282.4-.6.269-.841-.344-1.689-.671-2.534-1-.795-.315-1.586-.642-2.385-.936-.348-.128-.451-.286-.306-.658m5.755,9.9q-2.105,5.341-4.215,10.683-2.944,7.453-5.884,14.906c-.373.94-.4.952-1.337.58q-4.478-1.758-8.948-3.528c-.973-.385-.977-.393-.609-1.325Q135.26,57.8,140.581,44.333c.4-1,.791-2.008,1.188-3.01.029-.07.054-.132.079-.195.3-.737.406-.729,1.263-.393q4.478,1.764,8.944,3.532c.961.377.973.414.58,1.408-.141.356-.282.708-.418,1.064-.426,1.077-.853,2.157-1.279,3.234" transform="translate(-75.477 -22.726)" fill="#fff"/>
    <path id="Trazado_11849" data-name="Trazado 11849" d="M155.872,72.312c-.542,1.081-1.015,2.066-1.529,3.03-.286.535-.246.84.4,1.031a17.088,17.088,0,0,1,1.937.757c.616.268.662.546.153.985-2.057,1.773-4.127,3.532-6.189,5.3-.234.2-.474.388-.777.159-.322-.243-.137-.532-.012-.788.528-1.077,1.058-2.153,1.609-3.218.213-.412.114-.614-.315-.764-.679-.238-1.347-.51-2.011-.791-.734-.31-.782-.558-.2-1.061q3.027-2.6,6.068-5.192c.238-.2.484-.511.83-.267.4.282.091.618.031.82m-4.12,8.742.11.113q1.81-1.547,3.621-3.092c.292-.248.167-.385-.119-.5-.6-.232-1.183-.492-1.788-.7-.571-.2-.78-.486-.464-1.07s.581-1.194.869-1.792l-.12-.081-3.977,3.417c.866.342,1.575.646,2.3.9.543.19.732.466.442,1.013-.311.586-.585,1.192-.875,1.789" transform="translate(-87.036 -41.838)" fill="#fff"/>
    <path id="Trazado_11850" data-name="Trazado 11850" d="M94.828,5.021l.919-.2a1.665,1.665,0,0,0-.919.2m14.956,30.607q-1.652-7.577-3.3-15.155L105.726,17c-.24-1.1-.476-2.2-.716-3.3q-.671-3.1-1.337-6.2c-.215-.994-.426-1.987-.642-2.981-.344-1.607-1.089-2.153-2.5-1.644-.455.161-.679.029-.754-.468a.99.99,0,0,0-1.3-.944l-.646.137q-2.621.559-5.23,1.139a.959.959,0,0,0-.816,1.308c.19.629-.083.762-.617.874-1.482.306-1.8.832-1.474,2.323.037.182.079.36.116.542q1.646,7.559,3.292,15.126c.058.273.12.542.178.816.253,1.164.505,2.331.758,3.495q1.23,5.64,2.455,11.279c.356,1.64.853,1.963,2.46,1.615q4.621-1,9.246-2.012c1.615-.352,1.934-.853,1.582-2.476M93.151,3.543q2.59-.553,5.167-1.126a.7.7,0,0,1,.315-.017.3.3,0,0,1,.211.219.837.837,0,0,1,.041.132c.066.331-.008.493-.352.559-.89.182-1.776.381-2.662.576-.836.182-1.673.352-2.505.551-.36.087-.534.012-.617-.377s.108-.455.4-.518M108.1,37.2q-4.7,1.025-9.4,2.041c-1.023.224-1.031.219-1.242-.758q-1.279-5.863-2.551-11.73c-.257-1.164-.509-2.331-.762-3.495q-1.739-7.969-3.47-15.941c-.021-.1-.046-.207-.066-.311-.215-.981-.19-1.023.787-1.238l3.428-.745.919-.2q2.161-.472,4.327-.94c.24-.054.48-.1.72-.157,1.01-.219,1.039-.2,1.267.845.124.563.244,1.126.369,1.689l1.354,6.236,1.081,4.969c.207.948.41,1.9.617,2.845l.137.634q1.64,7.515,3.271,15.026c.215.99.2,1.014-.791,1.23" transform="translate(-52.49 -0.837)" fill="#fff"/>
    <path id="Trazado_11851" data-name="Trazado 11851" d="M111.878,37.919c-.352.062-.708.128-1.056.2-.331.07-.658.149-.977.248-.642.2-.845-.033-.9-.634-.112-1.089-.265-2.17-.418-3.37-.062-.2.008-.65-.48-.662-.422-.012-.455.381-.542.683q-.913,3.255-1.826,6.513c-.108.393-.219.783-.327,1.176-.207.745-.029.923.754.774.708-.137,1.416-.282,2.112-.464.439-.112.634,0,.687.46l.025.2c.124,1.126.277,2.248.431,3.37.037.286.046.625.447.65.377.021.472-.269.555-.567q.7-2.491,1.4-4.989l.795-2.857c.178-.646-.012-.853-.675-.733m-1.756,6.037c-.054-.012-.1-.021-.157-.033-.062-.447-.132-.894-.19-1.342q-.043-.317-.075-.634c-.066-.613-.377-.737-.932-.592-.745.19-1.5.331-2.414.53.149-.538.3-1.068.439-1.59.331-1.18.646-2.319.965-3.462h.145c.091.658.211,1.313.273,1.975a.767.767,0,0,0,.265.6.877.877,0,0,0,.716.029c.617-.166,1.25-.273,1.876-.414.3-.066.48-.021.377.348-.257.915-.513,1.826-.77,2.741-.174.613-.348,1.23-.518,1.843" transform="translate(-61.681 -19.748)" fill="#fff"/>
  </g>
</svg>
